<?xml version="1.0" encoding="UTF-8" standalone="no"?>
<!-- Generator: Adobe Illustrator 19.0.0, SVG Export Plug-In . SVG Version: 6.00 Build 0)  -->

<svg
   xmlns:dc="http://purl.org/dc/elements/1.1/"
   xmlns:cc="http://creativecommons.org/ns#"
   xmlns:rdf="http://www.w3.org/1999/02/22-rdf-syntax-ns#"
   xmlns:svg="http://www.w3.org/2000/svg"
   xmlns="http://www.w3.org/2000/svg"
   xmlns:sodipodi="http://sodipodi.sourceforge.net/DTD/sodipodi-0.dtd"
   xmlns:inkscape="http://www.inkscape.org/namespaces/inkscape"
   version="1.1"
   id="Layer_1"
   x="0px"
   y="0px"
   viewBox="0 0 512.001 512.001"
   style="enable-background:new 0 0 512.001 512.001;"
   xml:space="preserve"
   sodipodi:docname="back.svg"
   inkscape:version="0.92.3 (2405546, 2018-03-11)"><metadata
   id="metadata43"><rdf:RDF><cc:Work
       rdf:about=""><dc:format>image/svg+xml</dc:format><dc:type
         rdf:resource="http://purl.org/dc/dcmitype/StillImage" /><dc:title></dc:title></cc:Work></rdf:RDF></metadata><defs
   id="defs41" /><sodipodi:namedview
   pagecolor="#ffffff"
   bordercolor="#666666"
   borderopacity="1"
   objecttolerance="10"
   gridtolerance="10"
   guidetolerance="10"
   inkscape:pageopacity="0"
   inkscape:pageshadow="2"
   inkscape:window-width="2400"
   inkscape:window-height="1421"
   id="namedview39"
   showgrid="false"
   inkscape:zoom="0.46093662"
   inkscape:cx="256.00049"
   inkscape:cy="256.00049"
   inkscape:window-x="2391"
   inkscape:window-y="-9"
   inkscape:window-maximized="1"
   inkscape:current-layer="Layer_1" />
<path
   style="fill:#ffc61b"
   d="m 462.89425,512.001 c 5.425,0 10.702,-2.807 13.623,-7.836 4.362,-7.515 1.806,-17.144 -5.707,-21.507 L 80.426247,256 447.17625,43.063 v 336.659 c 0,8.69 7.046,15.734 15.734,15.734 8.688,0 15.734,-7.044 15.734,-15.734 V 15.735 c 0,-5.628 -3.005,-10.828 -7.884,-13.637 -4.876,-2.807 -10.882,-2.798 -15.751,0.03 L 41.188247,242.393 c -4.849,2.816 -7.834,7.999 -7.834,13.607 0,5.608 2.983,10.79 7.834,13.607 L 455.00825,509.87 c 2.486,1.445 5.205,2.131 7.886,2.131 z"
   id="path2"
   inkscape:connector-curvature="0" />
<polygon
   style="fill:#fee187"
   points="335.607,256 114.873,379.724 114.873,132.274 "
   id="polygon4"
   transform="matrix(-1,0,0,1,512.00025,0)" />
<path
   style="fill:#ffc61b"
   d="m 397.12725,395.459 c 2.75,0 5.499,-0.721 7.954,-2.159 4.819,-2.823 7.781,-7.991 7.781,-13.575 V 132.274 c 0,-5.586 -2.961,-10.753 -7.781,-13.575 -4.818,-2.823 -10.775,-2.882 -15.646,-0.149 l -220.734,123.725 c -4.966,2.783 -8.04,8.032 -8.04,13.725 0,5.693 3.074,10.942 8.04,13.725 l 220.734,123.725 c 2.39,1.339 5.043,2.009 7.692,2.009 z m -15.734,-236.328 V 352.869 L 208.57225,256 Z"
   id="path6"
   inkscape:connector-curvature="0" />
<g
   id="g8"
   transform="matrix(-1,0,0,1,512.00025,0)">
</g>
<g
   id="g10"
   transform="matrix(-1,0,0,1,512.00025,0)">
</g>
<g
   id="g12"
   transform="matrix(-1,0,0,1,512.00025,0)">
</g>
<g
   id="g14"
   transform="matrix(-1,0,0,1,512.00025,0)">
</g>
<g
   id="g16"
   transform="matrix(-1,0,0,1,512.00025,0)">
</g>
<g
   id="g18"
   transform="matrix(-1,0,0,1,512.00025,0)">
</g>
<g
   id="g20"
   transform="matrix(-1,0,0,1,512.00025,0)">
</g>
<g
   id="g22"
   transform="matrix(-1,0,0,1,512.00025,0)">
</g>
<g
   id="g24"
   transform="matrix(-1,0,0,1,512.00025,0)">
</g>
<g
   id="g26"
   transform="matrix(-1,0,0,1,512.00025,0)">
</g>
<g
   id="g28"
   transform="matrix(-1,0,0,1,512.00025,0)">
</g>
<g
   id="g30"
   transform="matrix(-1,0,0,1,512.00025,0)">
</g>
<g
   id="g32"
   transform="matrix(-1,0,0,1,512.00025,0)">
</g>
<g
   id="g34"
   transform="matrix(-1,0,0,1,512.00025,0)">
</g>
<g
   id="g36"
   transform="matrix(-1,0,0,1,512.00025,0)">
</g>
</svg>