<?xml version="1.0" encoding="iso-8859-1"?>
<!-- Generator: Adobe Illustrator 19.0.0, SVG Export Plug-In . SVG Version: 6.00 Build 0)  -->
<svg version="1.1" id="Layer_1" xmlns="http://www.w3.org/2000/svg" xmlns:xlink="http://www.w3.org/1999/xlink" x="0px" y="0px"
	 viewBox="0 0 512.002 512.002" style="enable-background:new 0 0 512.002 512.002;" xml:space="preserve">
<g>
	<path style="fill:#FFC61B;" d="M138.357,506.199c-5.012,0-9.923-2.445-12.876-6.951c-4.655-7.103-2.671-16.635,4.432-21.29
		L468.571,256L129.913,34.044c-7.103-4.655-9.088-14.187-4.432-21.29c4.656-7.103,14.189-9.087,21.29-4.432l358.281,234.82
		c4.336,2.842,6.949,7.678,6.949,12.862s-2.613,10.02-6.949,12.862L146.771,503.682
		C144.172,505.386,141.248,506.199,138.357,506.199z"/>
	<path style="fill:#FFC61B;" d="M15.379,506.198c-2.508,0-5.022-0.612-7.307-1.848c-4.97-2.686-8.069-7.881-8.069-13.529V135.082
		c0-8.493,6.885-15.378,15.378-15.378s15.378,6.885,15.378,15.378v327.274l314.851-206.354L6.951,34.044
		c-7.104-4.656-9.088-14.187-4.433-21.292c4.656-7.103,14.187-9.087,21.29-4.432l358.281,234.82
		c4.336,2.842,6.949,7.678,6.949,12.862s-2.613,10.02-6.949,12.862L23.809,503.682C21.258,505.353,18.323,506.198,15.379,506.198z"
		/>
</g>
<polygon style="fill:#FEE187;" points="79.671,376.922 249.241,256.002 79.671,135.081 "/>
<path style="fill:#FFC61B;" d="M79.67,392.299c-2.407,0-4.821-0.564-7.04-1.707c-5.119-2.636-8.336-7.912-8.336-13.671V135.081
	c0-5.759,3.217-11.033,8.336-13.671c5.119-2.637,11.281-2.193,15.97,1.15l169.571,120.921c4.046,2.886,6.449,7.55,6.449,12.52
	c0,4.97-2.404,9.634-6.449,12.52L88.6,389.442C85.944,391.337,82.814,392.299,79.67,392.299z M95.049,164.933v182.136L222.756,256
	L95.049,164.933z"/>
<g>
</g>
<g>
</g>
<g>
</g>
<g>
</g>
<g>
</g>
<g>
</g>
<g>
</g>
<g>
</g>
<g>
</g>
<g>
</g>
<g>
</g>
<g>
</g>
<g>
</g>
<g>
</g>
<g>
</g>
</svg>
