<?xml version="1.0" encoding="iso-8859-1"?>
<!-- Generator: Adobe Illustrator 18.0.0, SVG Export Plug-In . SVG Version: 6.00 Build 0)  -->
<!DOCTYPE svg PUBLIC "-//W3C//DTD SVG 1.1//EN" "http://www.w3.org/Graphics/SVG/1.1/DTD/svg11.dtd">
<svg version="1.1" id="Capa_1" xmlns="http://www.w3.org/2000/svg" xmlns:xlink="http://www.w3.org/1999/xlink" x="0px" y="0px"
	 viewBox="0 0 485.383 485.383" style="enable-background:new 0 0 485.383 485.383;" xml:space="preserve">
<g>
	<path d="M481.345,152.845L442.302,19.978c-0.828-2.749-3.227-4.762-6.104-5.065c-2.881-0.321-5.627,1.119-7.006,3.627
		L407.07,58.621C311.818-19.52,173.534-19.556,78.284,58.607L56.192,18.539c-1.376-2.508-4.16-3.948-7.036-3.627
		c-2.85,0.304-5.244,2.316-6.073,5.065L4.039,152.845c-0.735,2.514-0.03,5.23,1.822,7.053c1.822,1.869,4.545,2.559,7.069,1.837
		l132.818-39.054c2.783-0.816,4.795-3.231,5.081-6.092c0.357-2.863-1.117-5.645-3.643-7.02l-31.735-17.506
		c74.932-57.07,179.535-57.057,254.467,0l-31.752,17.506c-2.495,1.375-3.962,4.156-3.645,7.02c0.319,2.861,2.304,5.275,5.081,6.092
		l132.852,39.054c2.529,0.722,5.244,0.032,7.069-1.837C481.377,158.075,482.079,155.358,481.345,152.845z"/>
	<path d="M176.067,346.448L31.353,228.72c-3.582-2.91-8.503-3.501-12.66-1.516c-4.156,1.963-6.811,6.17-6.811,10.772v235.469
		c0,4.608,2.654,8.81,6.811,10.776c4.157,1.986,9.079,1.391,12.66-1.52L176.067,364.96c2.782-2.27,4.411-5.659,4.411-9.256
		C180.477,352.106,178.848,348.715,176.067,346.448z"/>
	<path d="M242.689,170.114c-9.047,0-16.37,7.32-16.37,16.369v259.881c0,9.049,7.323,16.373,16.37,16.373
		c9.051,0,16.375-7.324,16.375-16.373V186.483C259.064,177.435,251.74,170.114,242.689,170.114z"/>
	<path d="M466.691,227.204c-4.157-1.985-9.079-1.395-12.66,1.516L309.317,346.448c-2.781,2.267-4.411,5.658-4.411,9.256
		c0,3.597,1.629,6.986,4.411,9.256L454.03,482.702c3.582,2.91,8.503,3.506,12.66,1.52c4.157-1.967,6.81-6.168,6.81-10.776V237.977
		C473.501,233.374,470.847,229.167,466.691,227.204z"/>
</g>
<g>
</g>
<g>
</g>
<g>
</g>
<g>
</g>
<g>
</g>
<g>
</g>
<g>
</g>
<g>
</g>
<g>
</g>
<g>
</g>
<g>
</g>
<g>
</g>
<g>
</g>
<g>
</g>
<g>
</g>
</svg>
