<?xml version="1.0" encoding="iso-8859-1"?>
<!-- Generator: Adobe Illustrator 19.0.0, SVG Export Plug-In . SVG Version: 6.00 Build 0)  -->
<svg version="1.1" id="Layer_1" xmlns="http://www.w3.org/2000/svg" xmlns:xlink="http://www.w3.org/1999/xlink" x="0px" y="0px"
	 viewBox="0 0 512.001 512.001" style="enable-background:new 0 0 512.001 512.001;" xml:space="preserve">
<path style="fill:#FFC61B;" d="M49.106,512.001c-5.425,0-10.702-2.807-13.623-7.836c-4.362-7.515-1.806-17.144,5.707-21.507
	L431.574,256L64.824,43.063v336.659c0,8.69-7.046,15.734-15.734,15.734s-15.734-7.044-15.734-15.734V15.735
	c0-5.628,3.005-10.828,7.884-13.637c4.876-2.807,10.882-2.798,15.751,0.03l413.821,240.265c4.849,2.816,7.834,7.999,7.834,13.607
	c0,5.608-2.983,10.79-7.834,13.607L56.992,509.87C54.506,511.315,51.787,512.001,49.106,512.001z"/>
<polygon style="fill:#FEE187;" points="114.873,132.274 335.607,256 114.873,379.724 "/>
<path style="fill:#FFC61B;" d="M114.873,395.459c-2.75,0-5.499-0.721-7.954-2.159c-4.819-2.823-7.781-7.991-7.781-13.575V132.274
	c0-5.586,2.961-10.753,7.781-13.575c4.818-2.823,10.775-2.882,15.646-0.149l220.734,123.725c4.966,2.783,8.04,8.032,8.04,13.725
	s-3.074,10.942-8.04,13.725L122.565,393.45C120.175,394.789,117.522,395.459,114.873,395.459z M130.607,159.131v193.738L303.428,256
	L130.607,159.131z"/>
<g>
</g>
<g>
</g>
<g>
</g>
<g>
</g>
<g>
</g>
<g>
</g>
<g>
</g>
<g>
</g>
<g>
</g>
<g>
</g>
<g>
</g>
<g>
</g>
<g>
</g>
<g>
</g>
<g>
</g>
</svg>
